<?xml version="1.0" encoding="UTF-8" standalone="no"?>
<!-- Created with Inkscape (http://www.inkscape.org/) -->

<svg
   id="svg3349"
   version="1.1"
   inkscape:version="1.2.2 (b0a8486541, 2022-12-01)"
   width="382.93332"
   height="296.53333"
   sodipodi:docname="logo-complet.svg"
   inkscape:export-filename="logo-complet.png"
   inkscape:export-xdpi="949.18304"
   inkscape:export-ydpi="949.18304"
   viewBox="0 0 359 278"
   xmlns:inkscape="http://www.inkscape.org/namespaces/inkscape"
   xmlns:sodipodi="http://sodipodi.sourceforge.net/DTD/sodipodi-0.dtd"
   xmlns="http://www.w3.org/2000/svg"
   xmlns:svg="http://www.w3.org/2000/svg"
   xmlns:rdf="http://www.w3.org/1999/02/22-rdf-syntax-ns#"
   xmlns:cc="http://creativecommons.org/ns#"
   xmlns:dc="http://purl.org/dc/elements/1.1/">
  <metadata
     id="metadata3355">
    <rdf:RDF>
      <cc:Work
         rdf:about="">
        <dc:format>image/svg+xml</dc:format>
        <dc:type
           rdf:resource="http://purl.org/dc/dcmitype/StillImage" />
        <dc:title />
      </cc:Work>
    </rdf:RDF>
  </metadata>
  <defs
     id="defs3353" />
  <sodipodi:namedview
     pagecolor="#ffffff"
     bordercolor="#666666"
     borderopacity="1"
     objecttolerance="10"
     gridtolerance="10"
     guidetolerance="10"
     inkscape:pageopacity="0"
     inkscape:pageshadow="2"
     inkscape:window-width="3804"
     inkscape:window-height="2089"
     id="namedview3351"
     showgrid="false"
     inkscape:zoom="2.8284272"
     inkscape:cx="105.53568"
     inkscape:cy="215.49079"
     inkscape:window-x="15"
     inkscape:window-y="995"
     inkscape:window-maximized="0"
     inkscape:current-layer="svg3349"
     showguides="false"
     inkscape:snap-global="false"
     inkscape:showpageshadow="2"
     inkscape:pagecheckerboard="0"
     inkscape:deskcolor="#d1d1d1">
    <sodipodi:guide
       position="0,0"
       orientation="0,359"
       id="guide3361"
       inkscape:locked="false" />
    <sodipodi:guide
       position="359.00001,0"
       orientation="-278,0"
       id="guide3363"
       inkscape:locked="false" />
    <sodipodi:guide
       position="359.00001,278.00001"
       orientation="0,-359"
       id="guide3365"
       inkscape:locked="false" />
    <sodipodi:guide
       position="0,278.00001"
       orientation="278,0"
       id="guide3367"
       inkscape:locked="false" />
    <inkscape:grid
       type="xygrid"
       id="grid4784"
       originx="0"
       originy="0"
       spacingx="1"
       spacingy="1" />
  </sodipodi:namedview>
  <g
     id="g4786"
     transform="matrix(0.42774665,0,0,0.42774665,84.931623,80.620204)"
     inkscape:export-filename="/home/barim/projects/softinnov-website/static/img/logo-small.png"
     inkscape:export-xdpi="105.81689"
     inkscape:export-ydpi="105.81689">
    <path
       sodipodi:nodetypes="ccccccccccccccccccccccccccccccc"
       inkscape:export-ydpi="56.372047"
       inkscape:export-xdpi="56.372047"
       inkscape:export-filename="/home/hamdouni/Dropbox/Commercial/Communication/vector-logo/libellule32px.png"
       inkscape:connector-curvature="0"
       id="path3066"
       d="m 89.243676,130.46916 c -13.606475,-1.12868 -30.798375,-7.54713 -35.143452,-11.45717 -2.032986,-2.18326 -4.609661,-5.35415 2.407556,-2.969 12.182332,3.57933 24.935315,8.96735 37.710366,9.43357 1.76934,-3.33917 5.11869,-1.83117 5.882874,0.88738 -0.292504,2.50785 -2.788574,4.2063 -4.729644,4.14401 -1.02919,-0.11731 -5.09188,-0.021 -6.1277,-0.0388 z m 9.38256,-3.51037 c -0.0581,-0.97996 -1.88294,-2.55411 -4.57197,0.33623 -10.13413,-0.30061 -29.294976,-6.54423 -38.946393,-9.51359 10.353856,5.88808 28.506,11.48371 40.169963,11.19346 0.34641,-0.0496 2.25719,-0.39518 3.3484,-2.0161 z m 3.184084,-0.6678 c -4.211684,-3.63923 4.03322,-4.33639 3.87321,-1.01686 -0.0917,1.74823 -2.02635,2.6972 -3.87321,1.01686 z m 3.25791,-0.72565 c -0.65305,-3.68814 -4.31019,1.42587 -0.17836,0.24116 z m -14.845784,-1.51512 c -7.771143,-2.47851 -10.712561,-2.92294 -17.290615,-7.91797 -6.635667,-7.56516 -5.698925,-9.80901 -5.333256,-13.83762 2.457509,10.96378 12.35112,15.44646 21.507196,18.50364 -7.628882,-7.43886 -12.115275,-9.94177 -15.832916,-18.77334 -1.830958,-4.299522 -3.006098,-9.484072 -0.843433,-13.866512 1.958091,-3.00272 7.111828,-3.3831 9.173869,-0.28152 2.546754,2.96548 4.011383,6.2429 5.615381,12.736922 -1.404078,-1.747252 -5.644629,-8.162702 -6.581012,-9.528532 -0.91214,-1.70915 -3.640476,-2.36309 -5.123378,-0.33817 -1.863233,2.7456 2.098886,11.178582 3.93284,14.718132 5.551659,8.02832 9.298834,9.87511 15.532804,16.85685 1.27103,2.10832 -3.90326,2.47716 -4.75748,1.72812 z"
       style="fill:#1d6489;fill-opacity:1;fill-rule:nonzero;stroke:none" />
    <path
       inkscape:connector-curvature="0"
       id="path2993"
       d="m 78.78839,143.94409 c -6.846108,-0.35389 -13.149749,-2.76645 -18.654245,-7.13944 -1.181078,-0.93829 -3.791356,-3.56049 -4.788389,-4.81025 -4.906479,-6.15016 -7.366225,-13.72842 -6.958666,-21.43904 0.206026,-3.8978 0.996467,-7.3194 2.5119,-10.873302 4.196647,-9.84174 13.327543,-17.05326 23.934855,-18.90359 2.162201,-0.37717 2.725833,-0.41908 5.636364,-0.41908 2.914936,0 3.450948,0.0402 5.636363,0.4231 8.457294,1.48165 16.161748,6.45376 20.965918,13.5305 2.81631,4.14854 4.5436,8.673382 5.2747,13.817782 0.20467,1.44012 0.23602,6.28265 0.0494,7.63636 -0.56449,4.09566 -1.53003,7.2969 -3.18656,10.56504 -5.77783,11.39897 -17.650054,18.27212 -30.42168,17.61192 z m 5.136364,-2.22967 c 10.838892,-1.21417 20.236986,-8.28072 24.363366,-18.31917 1.49716,-3.64222 2.19266,-7.21526 2.19266,-11.26448 0,-1.93249 -0.0954,-3.15546 -0.38301,-4.90909 -1.49447,-9.112652 -7.3955,-17.183222 -15.709514,-21.485172 -3.35561,-1.7363 -7.30357,-2.89097 -11.099866,-3.24639 -1.343228,-0.12576 -4.293135,-0.12576 -5.636363,0 -10.4327,0.97675 -19.576267,7.22839 -24.138953,16.50428 -2.142313,4.355302 -3.064329,8.287192 -3.069778,13.090912 -0.0045,4.00834 0.621336,7.37383 2.032451,10.92886 4.6182,11.63466 16.104383,19.2088 28.630825,18.87955 0.875,-0.023 2.143182,-0.10368 2.818182,-0.1793 z"
       style="fill:#1d6489;fill-opacity:1" />
  </g>
  <g
     aria-label="softinnov"
     style="font-style:italic;font-variant:normal;font-weight:normal;font-stretch:semi-condensed;font-size:20.48430061px;line-height:1.25;font-family:'DejaVu Serif';-inkscape-font-specification:'DejaVu Serif, Italic Semi-Condensed';font-variant-ligatures:normal;font-variant-caps:normal;font-variant-numeric:normal;font-feature-settings:normal;text-align:start;letter-spacing:0px;word-spacing:0px;writing-mode:lr-tb;text-anchor:start;fill:#1d6489;fill-opacity:1;stroke:none;stroke-width:0.5644033"
     id="text264">
    <path
       d="m 141.90134,131.18258 h 0.95019 q -0.03,0.29005 -0.03,0.5501 0,1.82036 2.22043,1.82036 2.23044,0 2.5605,-1.82036 0.02,-0.18003 0.02,-0.50009 0,-0.31007 -0.31006,-0.68014 -0.30005,-0.38007 -1.59031,-0.87017 l -1.12021,-0.45008 q -1.15023,-0.44009 -1.5303,-1.0002 -0.37007,-0.57011 -0.37007,-1.22024 0,-0.26005 0.04,-0.56011 0.27006,-1.46028 1.37027,-2.29044 1.11022,-0.83016 2.71053,-0.83016 1.60031,0 3.27064,0.86016 l -0.41008,2.32046 h -0.95019 q 0.04,-0.23005 0.04,-0.43009 0,-0.73014 -0.46009,-1.24024 -0.45009,-0.5201 -1.5103,-0.5201 -2.11041,0 -2.40046,1.64032 -0.04,0.17003 -0.04,0.47009 0,0.31006 0.29006,0.66013 0.30005,0.35007 1.44028,0.77015 l 1.24024,0.45009 q 1.27025,0.47009 1.75034,1.18023 0.33006,0.50009 0.33006,0.99019 0,2.10041 -1.51029,3.19062 -1.19023,0.87017 -3.01059,0.87017 -1.81035,0 -3.42066,-0.88017 z"
       style="font-style:italic;font-variant:normal;font-weight:normal;font-stretch:semi-condensed;font-size:20.48399162px;font-family:'DejaVu Serif';-inkscape-font-specification:'DejaVu Serif, Italic Semi-Condensed';font-variant-ligatures:normal;font-variant-caps:normal;font-variant-numeric:normal;font-feature-settings:normal;text-align:start;writing-mode:lr-tb;text-anchor:start;fill:#1d6489;fill-opacity:1;stroke-width:0.5644033"
       id="path4949" />
    <path
       d="m 155.45398,133.55304 q 1.33026,0 2.21043,-1.17023 0.89018,-1.17023 1.29025,-3.45067 0.18004,-1.04021 0.18004,-1.85036 0,-0.96019 -0.26005,-1.59031 -0.4801,-1.17023 -1.81035,-1.17023 -1.33026,0 -2.22044,1.17023 -0.88017,1.16022 -1.28025,3.44067 -0.18003,1.0402 -0.18003,1.84036 0,0.97018 0.26005,1.61031 0.48009,1.17023 1.81035,1.17023 z m -0.18003,0.99019 q -2.08041,0 -3.0806,-1.5303 -0.70014,-1.07021 -0.70014,-2.61051 0,-0.69013 0.14003,-1.47028 0.44008,-2.5405 1.97038,-4.0708 1.5403,-1.53029 3.63071,-1.53029 2.10041,0 3.1006,1.53029 0.69014,1.06021 0.69014,2.60051 0,0.69013 -0.14003,1.47029 -0.44009,2.54049 -1.98039,4.08079 -1.53029,1.5303 -3.6307,1.5303 z"
       style="font-style:italic;font-variant:normal;font-weight:normal;font-stretch:semi-condensed;font-size:20.48399162px;font-family:'DejaVu Serif';-inkscape-font-specification:'DejaVu Serif, Italic Semi-Condensed';font-variant-ligatures:normal;font-variant-caps:normal;font-variant-numeric:normal;font-feature-settings:normal;text-align:start;writing-mode:lr-tb;text-anchor:start;fill:#1d6489;fill-opacity:1;stroke-width:0.5644033"
       id="path4951" />
    <path
       d="m 170.99701,121.20063 h -0.87017 q 0.03,-0.21004 0.03,-0.40008 0,-0.46009 -0.21005,-0.74014 -0.31006,-0.39008 -1.02019,-0.39008 -0.93019,0 -1.41028,0.57011 -0.47009,0.56011 -0.72014,2.01039 l -0.24005,1.37027 h 2.67052 l -0.19003,1.07021 h -2.67052 l -1.79035,10.22199 q -0.31006,1.78035 -1.30026,2.69053 -0.99019,0.91017 -2.6005,0.91017 l 0.10002,-0.98019 q 0.95018,0 1.41027,-0.56011 0.4801,-0.60011 0.73014,-2.0604 l 1.79035,-10.22199 h -1.5803 l 0.19003,-1.07021 h 1.58031 l 0.23004,-1.33026 q 0.32007,-1.79035 1.31026,-2.69052 0.99019,-0.91018 2.60051,-0.91018 0.60011,0 1.18023,0.12002 0.59011,0.12003 1.14022,0.37008 z"
       style="font-style:italic;font-variant:normal;font-weight:normal;font-stretch:semi-condensed;font-size:20.48399162px;font-family:'DejaVu Serif';-inkscape-font-specification:'DejaVu Serif, Italic Semi-Condensed';font-variant-ligatures:normal;font-variant-caps:normal;font-variant-numeric:normal;font-feature-settings:normal;text-align:start;writing-mode:lr-tb;text-anchor:start;fill:#1d6489;fill-opacity:1;stroke-width:0.5644033"
       id="path4953" />
    <path
       d="m 171.09703,124.69131 h -1.46028 l 0.19003,-1.07021 h 1.46029 l 0.57011,-3.30064 h 1.67032 l -0.58011,3.30064 h 3.11061 l -0.18004,1.07021 h -3.12061 l -1.18023,6.75132 q -0.14002,0.79015 -0.14002,1.25024 0,0.32006 0.07,0.48009 0.17003,0.38008 0.80016,0.38008 0.65012,0 1.02019,-0.42008 0.37008,-0.43009 0.56011,-1.38027 h 1.25025 q -0.33007,1.45028 -1.09021,2.12041 -0.75015,0.67013 -2.06041,0.67013 -1.43028,0 -1.90037,-0.71014 -0.29005,-0.43008 -0.29005,-1.23024 0,-0.5101 0.12002,-1.16022 z"
       style="font-style:italic;font-variant:normal;font-weight:normal;font-stretch:semi-condensed;font-size:20.48399162px;font-family:'DejaVu Serif';-inkscape-font-specification:'DejaVu Serif, Italic Semi-Condensed';font-variant-ligatures:normal;font-variant-caps:normal;font-variant-numeric:normal;font-feature-settings:normal;text-align:start;writing-mode:lr-tb;text-anchor:start;fill:#1d6489;fill-opacity:1;stroke-width:0.5644033"
       id="path4955" />
    <path
       d="m 178.93856,120.32046 q 0.08,-0.46009 0.44008,-0.80016 0.36007,-0.34006 0.79016,-0.34006 0.41008,0 0.65012,0.34006 0.18004,0.26005 0.18004,0.58012 0,0.11002 -0.02,0.22004 -0.08,0.47009 -0.44008,0.80015 -0.35007,0.33007 -0.77015,0.33007 -0.42008,0 -0.67013,-0.33007 -0.18004,-0.25004 -0.18004,-0.57011 0,-0.11002 0.02,-0.23004 z m -0.14003,12.87251 h 1.5703 l -0.19003,1.0602 h -3.22063 l 1.67033,-9.56186 h -1.58031 l 0.19003,-1.07021 h 3.24064 z"
       style="font-style:italic;font-variant:normal;font-weight:normal;font-stretch:semi-condensed;font-size:20.48399162px;font-family:'DejaVu Serif';-inkscape-font-specification:'DejaVu Serif, Italic Semi-Condensed';font-variant-ligatures:normal;font-variant-caps:normal;font-variant-numeric:normal;font-feature-settings:normal;text-align:start;writing-mode:lr-tb;text-anchor:start;fill:#1d6489;fill-opacity:1;stroke-width:0.5644033"
       id="path4957" />
    <path
       d="m 183.20939,134.25317 1.68032,-9.56186 h -1.5903 l 0.19003,-1.07021 h 3.24063 l -0.33006,1.89037 q 0.65013,-1.08021 1.48029,-1.63032 0.83016,-0.5501 1.80035,-0.5501 1.58031,0 2.15042,1.01019 0.35007,0.61012 0.35007,1.63032 0,0.67013 -0.15003,1.5203 l -1.0002,5.70111 h 1.48029 l -0.19004,1.0602 h -3.14061 l 1.08021,-6.1812 q 0.18004,-1.0302 0.18004,-1.72034 0,-0.61011 -0.14003,-0.96018 -0.31006,-0.72014 -1.40027,-0.72014 -1.15023,0 -1.92038,0.94018 -0.76015,0.93018 -1.07021,2.72053 l -1.0402,5.92115 z"
       style="font-style:italic;font-variant:normal;font-weight:normal;font-stretch:semi-condensed;font-size:20.48399162px;font-family:'DejaVu Serif';-inkscape-font-specification:'DejaVu Serif, Italic Semi-Condensed';font-variant-ligatures:normal;font-variant-caps:normal;font-variant-numeric:normal;font-feature-settings:normal;text-align:start;writing-mode:lr-tb;text-anchor:start;fill:#1d6489;fill-opacity:1;stroke-width:0.5644033"
       id="path4959" />
    <path
       d="m 195.0817,134.25317 1.68033,-9.56186 h -1.59031 l 0.19004,-1.07021 h 3.24063 l -0.33007,1.89037 q 0.65013,-1.08021 1.48029,-1.63032 0.83016,-0.5501 1.80035,-0.5501 1.58031,0 2.15042,1.01019 0.35007,0.61012 0.35007,1.63032 0,0.67013 -0.15003,1.5203 l -1.00019,5.70111 h 1.48028 l -0.19003,1.0602 h -3.14061 l 1.08021,-6.1812 q 0.18003,-1.0302 0.18003,-1.72034 0,-0.61011 -0.14003,-0.96018 -0.31006,-0.72014 -1.40027,-0.72014 -1.15022,0 -1.92037,0.94018 -0.76015,0.93018 -1.07021,2.72053 l -1.0402,5.92115 z"
       style="font-style:italic;font-variant:normal;font-weight:normal;font-stretch:semi-condensed;font-size:20.48399162px;font-family:'DejaVu Serif';-inkscape-font-specification:'DejaVu Serif, Italic Semi-Condensed';font-variant-ligatures:normal;font-variant-caps:normal;font-variant-numeric:normal;font-feature-settings:normal;text-align:start;writing-mode:lr-tb;text-anchor:start;fill:#1d6489;fill-opacity:1;stroke-width:0.5644033"
       id="path4961" />
    <path
       d="m 210.40469,133.55304 q 1.33026,0 2.21043,-1.17023 0.89017,-1.17023 1.29025,-3.45067 0.18004,-1.04021 0.18004,-1.85036 0,-0.96019 -0.26005,-1.59031 -0.4801,-1.17023 -1.81036,-1.17023 -1.33026,0 -2.22043,1.17023 -0.88017,1.16022 -1.28025,3.44067 -0.18003,1.0402 -0.18003,1.84036 0,0.97018 0.26005,1.61031 0.48009,1.17023 1.81035,1.17023 z m -0.18004,0.99019 q -2.0804,0 -3.0806,-1.5303 -0.70013,-1.07021 -0.70013,-2.61051 0,-0.69013 0.14002,-1.47028 0.44009,-2.5405 1.97039,-4.0708 1.5403,-1.53029 3.63071,-1.53029 2.10041,0 3.1006,1.53029 0.69013,1.06021 0.69013,2.60051 0,0.69013 -0.14002,1.47029 -0.44009,2.54049 -1.98039,4.08079 -1.5303,1.5303 -3.63071,1.5303 z"
       style="font-style:italic;font-variant:normal;font-weight:normal;font-stretch:semi-condensed;font-size:20.48399162px;font-family:'DejaVu Serif';-inkscape-font-specification:'DejaVu Serif, Italic Semi-Condensed';font-variant-ligatures:normal;font-variant-caps:normal;font-variant-numeric:normal;font-feature-settings:normal;text-align:start;writing-mode:lr-tb;text-anchor:start;fill:#1d6489;fill-opacity:1;stroke-width:0.5644033"
       id="path4963" />
    <path
       d="m 221.59687,134.25317 h -1.21023 l -1.85037,-9.56186 h -1.09021 l 0.18004,-1.07021 h 2.48048 l 1.62032,8.38164 q 1.0302,-1.0002 1.73033,-2.27045 1.44028,-2.64051 1.95038,-5.04098 h -1.10021 l 0.19004,-1.07021 h 2.48048 q -0.99019,4.12081 -2.23043,6.43126 -1.08022,2.00039 -3.15062,4.20081 z"
       style="font-style:italic;font-variant:normal;font-weight:normal;font-stretch:semi-condensed;font-size:20.48399162px;font-family:'DejaVu Serif';-inkscape-font-specification:'DejaVu Serif, Italic Semi-Condensed';font-variant-ligatures:normal;font-variant-caps:normal;font-variant-numeric:normal;font-feature-settings:normal;text-align:start;writing-mode:lr-tb;text-anchor:start;fill:#1d6489;fill-opacity:1;stroke-width:0.5644033"
       id="path4965" />
  </g>
</svg>
